PathFileType	4	(X/Y/Z)	Kaydara	
DataRate	CameraRate	NumFrames	NumMarkers	Units	OrigDataRate	OrigDataStartFrame	OrigNumFrames	
60.00	60.00	4	74	mm	60.00	2731	161	
Frame#	Time	Z_lasi			Z_rasi			Z_rpsi			Z_lpsi			Z_fneck			Z_bneck			Z_fhead			Z_rhead			Z_lhead			Z_rshld			Z_relbtop			Z_relbext			Z_relblow			Z_rwrext			Z_rwrtop			Z_rwrlow			Z_lshld			Z_lelbext			Z_lelblow			Z_lelbtop			Z_lwrext			Z_lwrtop			Z_rtopleg			Z_ltopleg			Z_rkneefr			Z_rkneebk			Z_rkneeis			Z_lkneefr			Z_lknssbk			Z_lkneeis			Z_rankfr			Z_rankis			Z_rankbk			Z_lankfr			Z_lankbk			Z_lankis			A_lasi			A_rasi			A_rpsi			A_lpsi			A_fneck			A_bneck			A_fhead			A_rhead			A_lhead			A_rshld			A_relbtop			A_relbext			A_relblow			A_rwrext			A_rwrtop			A_rwrlow			A_lshld			A_lelbext			A_lelblow			A_lelbtop			A_lwrext			A_lwrtop			A_lwrlow			A_rtopleg			A_ltopleg			A_rkneefr			A_rkneebk			A_rkneeis			A_lkneefr			A_lknssbk			A_lkneeis			A_rankfr			A_rankis			A_rankbk			A_lankfr			A_lankbk			A_lankis			Z_lwrlow			
		X1	Y1	Z1	X2	Y2	Z2	X3	Y3	Z3	X4	Y4	Z4	X5	Y5	Z5	X6	Y6	Z6	X7	Y7	Z7	X8	Y8	Z8	X9	Y9	Z9	X10	Y10	Z10	X11	Y11	Z11	X12	Y12	Z12	X13	Y13	Z13	X14	Y14	Z14	X15	Y15	Z15	X16	Y16	Z16	X17	Y17	Z17	X18	Y18	Z18	X19	Y19	Z19	X20	Y20	Z20	X21	Y21	Z21	X22	Y22	Z22	X23	Y23	Z23	X24	Y24	Z24	X25	Y25	Z25	X26	Y26	Z26	X27	Y27	Z27	X28	Y28	Z28	X29	Y29	Z29	X30	Y30	Z30	X31	Y31	Z31	X32	Y32	Z32	X33	Y33	Z33	X34	Y34	Z34	X35	Y35	Z35	X36	Y36	Z36	X37	Y37	Z37	X38	Y38	Z38	X39	Y39	Z39	X40	Y40	Z40	X41	Y41	Z41	X42	Y42	Z42	X43	Y43	Z43	X44	Y44	Z44	X45	Y45	Z45	X46	Y46	Z46	X47	Y47	Z47	X48	Y48	Z48	X49	Y49	Z49	X50	Y50	Z50	X51	Y51	Z51	X52	Y52	Z52	X53	Y53	Z53	X54	Y54	Z54	X55	Y55	Z55	X56	Y56	Z56	X57	Y57	Z57	X58	Y58	Z58	X59	Y59	Z59	X60	Y60	Z60	X61	Y61	Z61	X62	Y62	Z62	X63	Y63	Z63	X64	Y64	Z64	X65	Y65	Z65	X66	Y66	Z66	X67	Y67	Z67	X68	Y68	Z68	X69	Y69	Z69	X70	Y70	Z70	X71	Y71	Z71	X72	Y72	Z72	X73	Y73	Z73	X74	Y74	Z74	

121	45.500	-806.59241	1073.52631	-277.68278	-780.65331	1049.48662	-70.06015	-954.44969	1121.71432	-8.38983	-987.69272	1145.39810	-252.90209	-690.99327	1371.75140	-90.76582	-762.01637	1481.50131	-86.07197	-581.21517	1463.58536	72.68874	-715.21271	1556.49612	33.83416	-605.63019	1557.54440	-66.56360	-734.25316	1383.00293	78.76086	-547.23446	1185.33829	90.98996	-562.59937	1106.65146	114.59035	-573.29533	1095.67451	51.74140	-342.73163	1104.31770	51.59238	-342.83936	1151.17439	49.71097	-355.45830	1151.46507	7.67182	-780.17380	1454.61044	-277.81328	-956.36345	1211.25206	-430.21416	-941.78169	1170.24826	-370.54543	-884.66179	1188.11867	-439.76078	-915.54169	938.76617	-469.87495	-925.79300	947.66541	-515.16441	-976.01357	919.75876	20.62922	-909.98520	913.83423	-349.64718	-900.21797	419.91001	-42.02646	-986.97906	442.48993	-25.52824	-929.22333	433.05340	-136.12878	-812.57042	459.95903	-392.45071	-920.01144	482.77615	-402.97020	-850.60120	433.78345	-308.94749	-920.32990	179.82538	-49.15834	-911.34804	180.39774	-116.15238	-987.72316	169.18636	-81.31063	-846.22131	202.03114	-459.08092	-921.75537	197.46279	-425.65414	-852.92252	194.95399	-385.89214	204.72736	1033.72963	310.21431	222.55943	1043.99361	154.10885	382.81326	1059.14772	157.03185	326.91719	1055.67085	332.32899	213.06385	1374.22485	234.24362	349.05136	1418.25516	230.20292	171.69779	1594.63638	199.37223	330.93620	1555.32684	146.65064	299.86561	1564.28741	306.88147	263.66142	1367.27493	67.83497	63.97500	1202.98737	-3.21713	83.88964	1141.99875	6.24085	51.37797	1185.01915	52.64074	-174.63551	1122.99339	-24.42681	-165.03717	1111.76064	16.41799	-180.25557	1164.44855	-24.26429	245.04999	1371.28098	391.08154	265.64245	1071.71959	454.57256	310.41693	1062.87323	434.21986	244.35934	1067.17728	404.84680	195.91330	847.93823	446.19740	155.61641	865.06279	429.52808	205.07675	853.02711	403.69137	357.47620	882.47971	68.45392	251.44558	883.07564	393.00972	351.59626	412.51797	207.64545	397.54005	456.28651	117.61186	303.04403	402.48417	108.73913	342.96909	454.48273	235.84053	318.74914	472.62009	353.07518	245.43303	422.95082	266.05286	379.72591	171.25696	100.76886	383.26656	164.50676	172.20106	456.15807	167.57584	128.95142	303.91455	167.01408	298.03295	352.82143	170.14082	348.19321	372.84031	176.75777	263.28751	-969.94926	960.57526	-508.42796 
122	45.517	-805.86060	1074.76219	-267.90737	-781.68266	1049.70261	-60.21069	-956.07841	1121.14418	0.40517	-987.33727	1146.20522	-244.20296	-690.94116	1369.92340	-79.77657	-760.56961	1480.46722	-74.88952	-579.66408	1459.21631	83.43437	-712.68768	1554.31793	45.47411	-602.85248	1554.09042	-54.96302	-734.53720	1381.01532	89.87811	-548.29578	1182.99362	98.90821	-563.49670	1104.10416	122.09977	-574.67438	1093.81119	59.22105	-344.32259	1102.31041	57.61127	-343.66341	1148.89297	55.56652	-357.16728	1149.50966	13.74870	-778.62640	1454.35974	-266.95169	-956.58035	1213.04222	-419.67888	-942.58896	1171.49948	-359.97040	-885.18425	1189.00795	-429.30603	-920.41389	939.95659	-459.65839	-929.30557	949.03679	-505.44781	-978.71033	918.91075	27.93283	-907.49718	915.77919	-341.41380	-901.15685	419.54067	-38.81246	-988.14529	441.79531	-22.17715	-930.13618	433.40218	-132.67576	-806.26411	461.79905	-386.20132	-913.44086	485.56690	-397.37236	-845.26237	435.75558	-303.04306	-920.35919	180.06668	-49.22922	-911.87187	180.60207	-114.97519	-988.18893	168.91323	-80.26114	-843.09677	204.54643	-454.51153	-918.67401	200.69613	-421.39900	-850.12405	197.25794	-381.49132	203.53275	1033.41110	310.26688	221.32383	1043.19931	154.21204	381.59729	1058.32077	157.08774	325.51704	1055.36377	332.28992	212.73640	1374.17694	232.49825	348.59241	1418.96805	228.11184	169.20008	1594.31870	197.71833	328.39306	1556.24435	144.15957	297.91565	1564.46976	304.58187	264.23059	1366.56647	66.19742	62.32578	1201.98509	-1.19687	82.12231	1140.97694	10.56674	48.98898	1186.04347	55.12752	-176.43198	1121.99852	-19.22990	-166.67496	1111.17821	21.60973	-182.33252	1163.38058	-19.15335	244.04869	1372.39655	389.40697	263.22504	1073.43002	453.43464	307.68078	1064.17282	433.72257	241.59868	1068.59924	404.08546	193.51421	849.34952	445.81192	153.17937	866.26862	428.67760	202.84565	854.04335	403.52905	355.84145	881.99234	68.09325	250.23214	882.48550	392.94018	347.58007	411.64574	206.11591	392.39033	456.30531	116.69655	298.47393	401.85581	107.51614	340.75272	453.86494	235.91507	317.22363	472.45152	352.55726	244.00774	422.65594	265.66610	378.39378	171.23898	100.35688	381.68846	164.70486	171.89362	454.79836	168.59144	128.75818	303.42514	166.86710	297.78515	352.26566	170.18429	347.81689	372.29195	176.81183	262.74044	-973.07899	963.41843	-499.77859 
123	45.533	-804.92760	1075.40504	-258.29975	-783.06801	1049.32495	-50.56373	-958.06572	1120.52444	9.11817	-986.50436	1146.70807	-235.95394	-691.07712	1368.23654	-68.32893	-759.30809	1479.43832	-63.81607	-578.80836	1454.80270	94.69901	-710.31342	1551.92703	57.15581	-600.49194	1550.71442	-43.37413	-734.94118	1379.11972	100.84671	-549.37172	1181.03798	106.73343	-564.54990	1102.19849	129.92651	-576.03188	1092.02850	67.05442	-345.49408	1100.74303	63.59226	-345.41653	1147.64931	61.66738	-358.90728	1147.98210	19.79839	-776.87759	1454.17572	-256.15389	-956.48842	1214.92348	-409.43020	-942.78442	1173.08342	-350.13557	-885.44281	1189.99107	-418.92441	-923.68416	941.05003	-449.40956	-931.51932	950.27397	-495.29030	-981.27640	917.95311	34.99279	-904.78012	917.42126	-333.20393	-902.26845	419.06242	-34.76850	-989.06708	441.17859	-19.01584	-930.30159	433.68336	-129.10762	-798.38150	463.32150	-379.21883	-905.14503	488.48576	-391.29562	-838.74245	437.82215	-296.46318	-920.98076	179.72218	-47.92275	-912.15973	180.81781	-113.52539	-988.45329	168.51833	-79.62353	-839.64577	206.89251	-448.96187	-915.52055	204.18785	-416.28452	-847.19269	199.08484	-375.87833	202.01412	1033.58047	310.29470	219.91739	1042.63458	154.33630	380.24216	1057.99660	156.83775	324.10107	1055.26810	331.99398	212.58423	1374.22440	231.06194	348.30875	1419.77661	226.32980	166.59613	1593.73520	195.86012	325.91766	1557.16171	141.52274	296.25534	1565.09140	302.00211	263.87953	1366.98563	66.81139	60.71233	1201.89201	0.51282	80.49530	1140.99464	13.69185	47.18825	1187.20146	57.14847	-178.29493	1121.69426	-14.14058	-168.14749	1111.05064	26.58791	-184.58841	1163.00713	-14.06556	243.13063	1373.28598	387.69363	260.72580	1074.52034	452.47753	305.56946	1065.03662	432.39094	239.46430	1069.58458	402.97020	190.62714	850.54207	445.39150	150.49489	867.37587	428.03535	200.40688	854.98871	403.29117	354.37363	881.67587	67.73782	248.85342	882.34467	393.26668	335.57472	414.13761	204.98440	387.24213	456.18259	115.97281	293.64731	401.42956	106.06046	338.28335	453.47263	235.99966	315.61623	472.34482	352.14546	242.04895	422.52583	265.18652	376.96556	171.32233	99.92258	379.98783	164.84648	171.33986	453.28072	169.78395	128.58623	302.77479	166.74202	297.62203	351.71001	170.28887	347.62379	371.62975	176.95599	262.46634	-974.98970	965.67451	-490.37941 
124	45.550	-803.87306	1075.53543	-248.73812	-784.80629	1048.59062	-40.98100	-959.92867	1119.74838	17.23762	-985.20988	1146.91452	-228.28104	-691.29967	1366.38351	-57.39046	-758.14163	1478.27621	-52.84286	-577.98950	1450.21057	105.61552	-708.30383	1549.42047	68.71216	-598.39718	1547.47025	-31.71016	-735.43816	1377.35153	111.41546	-550.50938	1179.37363	114.55247	-565.33382	1100.52971	137.68694	-577.40387	1090.47432	75.04946	-346.61613	1099.47037	69.64312	-346.72352	1146.60553	67.62121	-360.57701	1146.74446	26.05023	-775.05928	1453.94485	-245.44514	-956.15982	1216.72867	-399.54357	-943.24860	1174.56268	-340.14576	-885.34912	1190.89806	-408.63129	-926.49582	942.36511	-438.52173	-932.33604	951.23657	-484.88297	-983.98499	916.75667	41.85407	-901.97906	918.79005	-325.24181	-903.12630	418.31059	-30.66994	-989.84573	440.41477	-15.90242	-929.70482	433.72452	-125.23383	-789.34120	464.69265	-371.21864	-895.49446	491.43192	-384.34704	-830.81497	439.94236	-288.82477	-921.06926	179.20078	-46.60933	-911.96236	180.92854	-112.45429	-988.54004	168.44486	-78.73623	-835.92514	209.24240	-441.96358	-911.67633	208.12853	-409.71539	-843.56812	201.19192	-369.26476	200.83460	1034.06204	310.28948	218.58973	1042.67784	154.32029	378.83224	1058.00583	156.47243	323.02818	1055.30540	331.49067	212.42039	1374.22485	229.57922	348.01342	1420.53833	224.50142	164.16130	1592.87781	193.90022	323.58128	1557.86362	138.80731	294.51485	1565.92468	299.37468	262.37305	1367.54257	67.42482	58.87539	1202.49123	2.39975	79.09264	1141.70692	15.34482	45.78853	1188.02780	59.22180	-179.99891	1121.69724	-9.32333	-169.43159	1111.07323	31.05462	-186.56805	1162.94914	-9.07395	242.45663	1373.86826	386.27750	258.08119	1075.31517	451.63403	303.08279	1065.42610	432.50351	237.62079	1070.29015	401.89705	187.51158	851.51352	445.15560	147.61872	868.41583	427.40635	197.64692	855.56152	402.92980	352.92542	881.44318	67.44483	247.32918	882.32513	393.01872	331.78600	413.02731	203.60891	381.71677	456.69025	114.12721	288.58889	401.01952	104.22306	335.96554	453.32771	235.78653	313.59999	472.23717	351.85295	239.99151	422.39452	264.77034	375.38872	171.51411	99.37335	378.12981	165.34239	170.77311	451.57791	170.92686	128.49518	302.21071	166.61367	297.53677	351.14788	170.45588	347.69886	370.85846	177.06205	262.39956	-975.63744	967.28989	-480.66685 
